<svg _ngcontent-wmv-c58="" xmlns="http://www.w3.org/2000/svg" width="35" height="35" viewBox="0 0 35 35" fill="none"><g _ngcontent-wmv-c58="" clip-path="url(#clip0_1431_905)"><path _ngcontent-wmv-c58="" fill-rule="evenodd" clip-rule="evenodd" d="M0.713867 17.7316C0.713867 26.1835 6.85228 33.2116 14.8805 34.6367V22.3585H10.6305V17.6367H14.8805V13.8585C14.8805 9.60847 17.619 7.2483 21.4921 7.2483C22.719 7.2483 24.0421 7.43672 25.269 7.62514V11.9701H23.0972C21.019 11.9701 20.5472 13.0085 20.5472 14.3316V17.6367H25.0805L24.3255 22.3585H20.5472V34.6367C28.5755 33.2116 34.7139 26.1849 34.7139 17.7316C34.7139 8.32922 27.0639 0.636719 17.7139 0.636719C8.36387 0.636719 0.713867 8.32922 0.713867 17.7316Z" fill="#0134A9"></path></g><defs _ngcontent-wmv-c58=""><clipPath _ngcontent-wmv-c58="" id="clip0_1431_905"><rect _ngcontent-wmv-c58="" width="34" height="34" fill="white" transform="translate(0.713867 0.636719)"></rect></clipPath></defs></svg>