<svg _ngcontent-wmv-c58="" xmlns="http://www.w3.org/2000/svg" width="34" height="34" viewBox="0 0 34 34">
<path _ngcontent-wmv-c58="" id="insta" d="M17.709,11.968a5.669,5.669,0,1,0,5.669,5.669A5.681,5.681,0,0,0,17.709,11.968Zm17,5.669c0-2.348.021-4.674-.111-7.017a10.11,10.11,0,0,0-2.743-7.128C29.864,1.5,27.452.88,24.731.749,22.383.617,20.057.638,17.714.638S13.04.617,10.7.749A10.109,10.109,0,0,0,3.569,3.492C1.574,5.486.958,7.9.826,10.619.694,12.967.715,15.293.715,17.637s-.021,4.674.111,7.017a10.11,10.11,0,0,0,2.743,7.128c1.995,1.995,4.406,2.611,7.128,2.743,2.347.132,4.674.111,7.017.111s4.674.021,7.017-.111a10.11,10.11,0,0,0,7.128-2.743c1.995-1.995,2.611-4.406,2.743-7.128.136-2.343.111-4.67.111-7.017Zm-17,8.723a8.723,8.723,0,1,1,8.722-8.723A8.71,8.71,0,0,1,17.709,26.359Zm9.08-15.765a2.035,2.035,0,1,1,.78-.154,2.035,2.035,0,0,1-.78.154Z" transform="translate(-0.714 -0.637)" fill="#0134a9"></path>
</svg>