<svg _ngcontent-wmv-c58="" xmlns="http://www.w3.org/2000/svg" width="35" height="35" viewBox="0 0 35 35" fill="none"><path _ngcontent-wmv-c58="" d="M17.7139 0.636719C8.32592 0.636719 0.713867 8.24877 0.713867 17.6367C0.713867 27.0247 8.32592 34.6367 17.7139 34.6367C27.1018 34.6367 34.7139 27.0247 34.7139 17.6367C34.7139 8.24877 27.1018 0.636719 17.7139 0.636719ZM25.8837 13.4512C25.8951 13.6296 25.8951 13.8155 25.8951 13.9977C25.8951 19.5682 21.6527 25.9849 13.9003 25.9849C11.5096 25.9849 9.29355 25.2905 7.42659 24.0952C7.76811 24.1331 8.09445 24.1483 8.44356 24.1483C10.4168 24.1483 12.2306 23.4805 13.6764 22.3497C11.8246 22.3117 10.2688 21.0974 9.73753 19.4278C10.3864 19.5227 10.9708 19.5227 11.6386 19.3519C10.6851 19.1582 9.82813 18.6403 9.21317 17.8863C8.59822 17.1323 8.26326 16.1887 8.26521 15.2157V15.1626C8.82302 15.4776 9.47949 15.6711 10.1663 15.6977C9.58894 15.3129 9.11543 14.7915 8.78777 14.1799C8.46012 13.5683 8.28844 12.8853 8.28797 12.1914C8.28797 11.4059 8.49289 10.6887 8.86097 10.0664C9.9193 11.3692 11.2399 12.4348 12.7371 13.1938C14.2342 13.9528 15.8743 14.3883 17.5507 14.472C16.9549 11.607 19.0951 9.2885 21.6679 9.2885C22.8822 9.2885 23.975 9.79699 24.7453 10.6166C25.6978 10.4383 26.6085 10.0816 27.4206 9.60346C27.1056 10.5787 26.4453 11.4021 25.5688 11.922C26.4188 11.8309 27.2384 11.5956 27.9973 11.2655C27.4244 12.1079 26.7072 12.8555 25.8837 13.4512Z" fill="#0134A9"></path></svg>